<svg width="68" height="26" viewBox="0 0 68 26" fill="none" xmlns="http://www.w3.org/2000/svg">
<path d="M54.5 0.5C61.4036 0.5 67 6.09644 67 13C67 19.9036 61.4036 25.5 54.5 25.5H13C6.09644 25.5 0.5 19.9036 0.5 13C0.5 6.09644 6.09644 0.5 13 0.5H54.5Z" fill="#F9F9F9" fill-opacity="0.8"/>
<path d="M54.5 0.5C61.4036 0.5 67 6.09644 67 13C67 19.9036 61.4036 25.5 54.5 25.5H13C6.09644 25.5 0.5 19.9036 0.5 13C0.5 6.09644 6.09644 0.5 13 0.5H54.5Z" stroke="#26282C"/>
<g clip-path="url(#clip0_373_221)">
<path d="M23.125 12.625C24.3671 12.625 25.375 11.6172 25.375 10.375C25.375 9.13281 24.3671 8.125 23.125 8.125C22.2929 8.125 21.564 8.57734 21.175 9.25H19.9422C20.4062 7.93984 21.6554 7 23.125 7C24.9882 7 26.5 8.51172 26.5 10.375C26.5 12.2383 24.9882 13.75 23.125 13.75C22.4757 13.75 21.8711 13.5672 21.3554 13.2508L22.1851 12.4211C22.4711 12.5523 22.7898 12.625 23.125 12.625ZM13.0421 10.3469C13.1289 10.1359 13.3351 10 13.5625 10H22.1875C22.4148 10 22.6211 10.1359 22.7078 10.3469C22.7945 10.5578 22.7476 10.7992 22.5859 10.9609L18.4375 15.1094V17.875H19.9375C20.2492 17.875 20.5 18.1258 20.5 18.4375C20.5 18.7492 20.2492 19 19.9375 19H17.875H15.8125C15.5007 19 15.25 18.7492 15.25 18.4375C15.25 18.1258 15.5007 17.875 15.8125 17.875H17.3125V15.107L13.164 10.9609C13.0023 10.7992 12.9554 10.5578 13.0421 10.3469Z" fill="#FF1C1C"/>
</g>
<path d="M32.024 7.892H39.056V9.164H32.024V7.892ZM30.992 15.428H41.048V16.724H30.992V15.428ZM34.544 11.612H36.152V16.076H34.544V11.612ZM38.48 7.892H40.088V8.948C40.088 9.412 40.08 9.904 40.064 10.424C40.056 10.944 40.02 11.52 39.956 12.152C39.9 12.784 39.796 13.492 39.644 14.276L38.048 14.108C38.272 12.996 38.4 12.028 38.432 11.204C38.464 10.372 38.48 9.62 38.48 8.948V7.892ZM46.2191 7.268H47.6111V7.796C47.6111 8.22 47.5431 8.632 47.4071 9.032C47.2791 9.424 47.0871 9.792 46.8311 10.136C46.5751 10.48 46.2631 10.788 45.8951 11.06C45.5271 11.332 45.0991 11.564 44.6111 11.756C44.1311 11.94 43.6031 12.08 43.0271 12.176L42.4031 10.892C42.9151 10.828 43.3711 10.72 43.7711 10.568C44.1791 10.416 44.5351 10.236 44.8391 10.028C45.1511 9.82 45.4071 9.592 45.6071 9.344C45.8071 9.096 45.9591 8.84 46.0631 8.576C46.1671 8.312 46.2191 8.052 46.2191 7.796V7.268ZM46.5191 7.268H47.9111V7.796C47.9111 8.052 47.9631 8.312 48.0671 8.576C48.1711 8.84 48.3231 9.096 48.5231 9.344C48.7231 9.592 48.9751 9.82 49.2791 10.028C49.5911 10.236 49.9471 10.416 50.3471 10.568C50.7551 10.72 51.2151 10.828 51.7271 10.892L51.1031 12.176C50.5191 12.08 49.9871 11.94 49.5071 11.756C49.0271 11.564 48.6031 11.332 48.2351 11.06C47.8671 10.78 47.5551 10.468 47.2991 10.124C47.0431 9.78 46.8471 9.412 46.7111 9.02C46.5831 8.628 46.5191 8.22 46.5191 7.796V7.268ZM46.2191 13.988H47.8151V18.068H46.2191V13.988ZM42.0311 12.98H52.0871V14.276H42.0311V12.98Z" fill="#FF1C1C"/>
<defs>
<clipPath id="clip0_373_221">
<path d="M13 7H26.5V19H13V7Z" fill="white"/>
</clipPath>
</defs>
</svg>
