<svg width="65" height="65" viewBox="0 0 65 65" fill="none" xmlns="http://www.w3.org/2000/svg">
<g clip-path="url(#clip0_126_546)">
<path d="M49.937 1.19019C51.5239 -0.396729 54.1011 -0.396729 55.688 1.19019L63.813 9.31519C65.3999 10.9021 65.3999 13.4792 63.813 15.0662C62.3149 16.5642 59.9155 16.6531 58.3286 15.3074L57.1226 16.5134L50.9272 22.7087C49.7593 23.8767 49.4673 25.616 49.8355 27.2283C51.0288 32.4207 49.5942 38.0955 45.5444 42.1453L25.0415 62.6228C21.8677 65.7966 16.7261 65.7966 13.5522 62.6228L2.38037 51.4509C-0.793457 48.2771 -0.793457 43.1355 2.38037 39.9617L22.8706 19.4587C26.9204 15.4089 32.5952 13.9871 37.7876 15.1677C39.3872 15.5359 41.1392 15.2312 42.2944 14.0759L48.4897 7.88061L49.6958 6.67456C48.3501 5.07495 48.4263 2.68823 49.937 1.19019ZM12.6001 44.0876L20.9028 52.3904C21.6899 53.1775 22.9849 53.1775 23.772 52.3904L36.1372 40.0251C36.9243 39.238 36.9243 37.9431 36.1372 37.156L27.8345 28.8533C27.0474 28.0662 25.7524 28.0662 24.9653 28.8533L12.6001 41.2185C11.813 42.0056 11.813 43.3005 12.6001 44.0876Z" fill="#38BDF8"/>
</g>
<defs>
<clipPath id="clip0_126_546">
<rect width="65" height="65" fill="white"/>
</clipPath>
</defs>
</svg>
