<svg width="68" height="26" viewBox="0 0 68 26" fill="none" xmlns="http://www.w3.org/2000/svg">
<path d="M54.5 0.5C61.4036 0.5 67 6.09644 67 13C67 19.9036 61.4036 25.5 54.5 25.5H13C6.09644 25.5 0.5 19.9036 0.5 13C0.5 6.09644 6.09644 0.5 13 0.5H54.5Z" fill="#F9F9F9" fill-opacity="0.8"/>
<path d="M54.5 0.5C61.4036 0.5 67 6.09644 67 13C67 19.9036 61.4036 25.5 54.5 25.5H13C6.09644 25.5 0.5 19.9036 0.5 13C0.5 6.09644 6.09644 0.5 13 0.5H54.5Z" stroke="#26282C"/>
<g clip-path="url(#clip0_373_207)">
<path d="M23.125 12.625C24.3671 12.625 25.375 11.6172 25.375 10.375C25.375 9.13281 24.3671 8.125 23.125 8.125C22.2929 8.125 21.564 8.57734 21.175 9.25H19.9422C20.4062 7.93984 21.6554 7 23.125 7C24.9882 7 26.5 8.51172 26.5 10.375C26.5 12.2383 24.9882 13.75 23.125 13.75C22.4757 13.75 21.8711 13.5672 21.3554 13.2508L22.1851 12.4211C22.4711 12.5523 22.7898 12.625 23.125 12.625ZM13.0421 10.3469C13.1289 10.1359 13.3351 10 13.5625 10H22.1875C22.4148 10 22.6211 10.1359 22.7078 10.3469C22.7945 10.5578 22.7476 10.7992 22.5859 10.9609L18.4375 15.1094V17.875H19.9375C20.2492 17.875 20.5 18.1258 20.5 18.4375C20.5 18.7492 20.2492 19 19.9375 19H17.875H15.8125C15.5007 19 15.25 18.7492 15.25 18.4375C15.25 18.1258 15.5007 17.875 15.8125 17.875H17.3125V15.107L13.164 10.9609C13.0023 10.7992 12.9554 10.5578 13.0421 10.3469Z" fill="#27B6B6"/>
</g>
<path d="M30.992 15.512H41.06V16.808H30.992V15.512ZM35.228 13.364H36.812V16.172H35.228V13.364ZM35.216 9.26H36.62V9.5C36.62 10.036 36.516 10.54 36.308 11.012C36.1 11.476 35.792 11.896 35.384 12.272C34.984 12.648 34.492 12.964 33.908 13.22C33.324 13.476 32.648 13.652 31.88 13.748L31.304 12.476C31.984 12.396 32.568 12.26 33.056 12.068C33.552 11.868 33.956 11.628 34.268 11.348C34.588 11.068 34.824 10.772 34.976 10.46C35.136 10.14 35.216 9.82 35.216 9.5V9.26ZM35.42 9.26H36.824V9.5C36.824 9.82 36.9 10.14 37.052 10.46C37.212 10.772 37.448 11.068 37.76 11.348C38.08 11.628 38.488 11.868 38.984 12.068C39.48 12.26 40.064 12.396 40.736 12.476L40.16 13.748C39.392 13.652 38.716 13.476 38.132 13.22C37.548 12.964 37.052 12.648 36.644 12.272C36.244 11.896 35.94 11.476 35.732 11.012C35.524 10.54 35.42 10.036 35.42 9.5V9.26ZM31.844 8.456H40.184V9.728H31.844V8.456ZM35.228 7.1H36.812V8.972H35.228V7.1ZM42.0311 15.476H52.0991V16.772H42.0311V15.476ZM46.2551 13.1H47.8391V15.788H46.2551V13.1ZM43.0871 7.652H44.6831V9.368H49.4111V7.652H50.9951V13.436H43.0871V7.652ZM44.6831 10.616V12.164H49.4111V10.616H44.6831Z" fill="#27B6B6"/>
<defs>
<clipPath id="clip0_373_207">
<path d="M13 7H26.5V19H13V7Z" fill="white"/>
</clipPath>
</defs>
</svg>
