<svg width="1646" height="271" viewBox="0 0 1646 271" fill="none" xmlns="http://www.w3.org/2000/svg">
<path d="M997.253 0C1088.61 0 1168.79 22.4869 1214.11 56.3223C1259.52 30.994 1324.58 15.1279 1396.83 15.1279C1534.1 15.1281 1645.38 72.3909 1645.38 143.027C1645.38 213.664 1534.1 270.926 1396.83 270.926C1303.22 270.926 1221.69 244.295 1179.3 204.954C1132.89 227.006 1068.47 240.671 997.253 240.671C925.15 240.671 860.009 226.663 813.474 204.125C767.219 235.356 690.272 255.799 603.166 255.799C542.414 255.799 486.603 245.856 442.7 229.243C395.894 247.935 335.714 259.18 270.06 259.18C120.91 259.18 0.000206281 201.16 0 129.59C0.000456494 58.0196 120.91 0 270.06 0C342.978 7.50672e-05 409.145 13.8704 457.734 36.4092C499.041 22.9896 549.15 15.1279 603.166 15.1279C675.269 15.1279 740.41 29.1359 786.945 51.6738C833.2 20.4424 910.147 4.298e-05 997.253 0Z" fill="#FFFCF6"/>
</svg>
