<svg width="462" height="461" viewBox="0 0 462 461" fill="none" xmlns="http://www.w3.org/2000/svg">
<path d="M346.256 216.094C388.672 216.094 423.085 177.377 423.085 129.656C423.085 81.9355 388.672 43.2188 346.256 43.2188C317.845 43.2188 292.956 60.5963 279.67 86.4375H237.574C253.42 36.1057 296.077 0 346.256 0C409.88 0 461.5 58.0752 461.5 129.656C461.5 201.237 409.88 259.312 346.256 259.312C324.087 259.312 303.44 252.289 285.833 240.134L314.164 208.26C323.927 213.303 334.812 216.094 346.256 216.094ZM1.96428 128.576C4.92541 120.472 11.9681 115.25 19.7311 115.25H314.244C322.007 115.25 329.049 120.472 332.01 128.576C334.972 136.679 333.371 145.953 327.849 152.166L186.195 311.535V417.781H237.414C248.058 417.781 256.622 427.415 256.622 439.391C256.622 451.366 248.058 461 237.414 461H166.987H96.5604C85.9164 461 77.3531 451.366 77.3531 439.391C77.3531 427.415 85.9164 417.781 96.5604 417.781H147.78V311.445L6.12587 152.166C0.603757 145.953 -0.996855 136.679 1.96428 128.576Z" fill="#FC619C"/>
</svg>
