<svg width="18" height="14" viewBox="0 0 18 14" fill="none" xmlns="http://www.w3.org/2000/svg">
<path d="M2.25 2.125C1.94062 2.125 1.6875 2.37812 1.6875 2.6875V3.46445L7.75195 8.44258C8.47969 9.04023 9.52383 9.04023 10.2516 8.44258L16.3125 3.46445V2.6875C16.3125 2.37812 16.0594 2.125 15.75 2.125H2.25ZM1.6875 5.64766V11.6875C1.6875 11.9969 1.94062 12.25 2.25 12.25H15.75C16.0594 12.25 16.3125 11.9969 16.3125 11.6875V5.64766L11.3203 9.74687C9.97031 10.8543 8.02617 10.8543 6.67969 9.74687L1.6875 5.64766ZM0 2.6875C0 1.44648 1.00898 0.4375 2.25 0.4375H15.75C16.991 0.4375 18 1.44648 18 2.6875V11.6875C18 12.9285 16.991 13.9375 15.75 13.9375H2.25C1.00898 13.9375 0 12.9285 0 11.6875V2.6875Z" fill="#FFB0CE"/>
</svg>
