<svg width="153" height="95" viewBox="0 0 153 95" fill="none" xmlns="http://www.w3.org/2000/svg">
<path d="M14.9741 31.88C15.6407 31.88 16.1741 32.0667 16.5741 32.44C17.0007 32.8133 17.2141 33.3467 17.2141 34.04V37.84C17.2141 38.5067 16.9874 39.0267 16.5341 39.4C16.0807 39.7733 15.5607 39.96 14.9741 39.96H11.6541C11.1207 39.96 10.7474 40.1067 10.5341 40.4C10.3474 40.72 10.2541 41.04 10.2541 41.36V41.68C10.2541 42.0533 10.3474 42.4267 10.5341 42.8C10.7207 43.1733 11.1474 43.36 11.8141 43.36H16.2941C16.6674 43.36 16.9741 43.4667 17.2141 43.68C17.4807 43.92 17.6141 44.2267 17.6141 44.6C17.6141 44.9733 17.4807 45.2667 17.2141 45.48C16.9741 45.72 16.6674 45.84 16.2941 45.84H9.77406C9.1874 45.84 8.6674 45.64 8.21406 45.24C7.7874 44.8667 7.57406 44.3467 7.57406 43.68V39.84C7.57406 39.1467 7.80073 38.5867 8.25406 38.16C8.7074 37.7333 9.2674 37.52 9.93406 37.52H13.0941C13.6274 37.52 13.9874 37.3867 14.1741 37.12C14.3874 36.8533 14.4941 36.5467 14.4941 36.2V35.84C14.4941 35.4667 14.3874 35.12 14.1741 34.8C13.9874 34.5067 13.5741 34.36 12.9341 34.36H8.97406C8.60073 34.36 8.28073 34.24 8.01406 34C7.77406 33.7867 7.65406 33.4933 7.65406 33.12C7.65406 32.7467 7.77406 32.4533 8.01406 32.24C8.28073 32 8.60073 31.88 8.97406 31.88H14.9741ZM1.81406 22.36C1.81406 21.3733 2.05406 20.5067 2.53406 19.76C3.01406 19.0133 3.65406 18.4267 4.45406 18C5.25406 17.5733 6.12073 17.36 7.05406 17.36C8.01406 17.36 8.89406 17.5733 9.69406 18C10.4941 18.4267 11.1341 19.0133 11.6141 19.76C12.0941 20.5067 12.3341 21.3733 12.3341 22.36C12.3341 23.32 12.0941 24.1867 11.6141 24.96C11.1341 25.7067 10.4941 26.2933 9.69406 26.72C8.89406 27.1467 8.01406 27.36 7.05406 27.36C6.12073 27.36 5.25406 27.1467 4.45406 26.72C3.65406 26.2933 3.01406 25.7067 2.53406 24.96C2.05406 24.1867 1.81406 23.32 1.81406 22.36ZM15.0941 18.12C15.0941 17.72 15.2141 17.4 15.4541 17.16C15.7207 16.92 16.0541 16.8 16.4541 16.8C16.9341 16.8 17.2674 16.9333 17.4541 17.2C17.6674 17.44 17.7741 17.7467 17.7741 18.12V20.44C17.7741 20.7867 17.8274 21.0933 17.9341 21.36C18.0674 21.6267 18.4141 21.76 18.9741 21.76H20.3341C20.7874 21.76 21.1074 21.8933 21.2941 22.16C21.5074 22.4267 21.6141 22.7067 21.6141 23C21.6141 23.8 21.1874 24.2 20.3341 24.2H18.9741C18.4674 24.2 18.1341 24.32 17.9741 24.56C17.8407 24.7733 17.7741 25.0667 17.7741 25.44V29.4C17.7741 29.7733 17.6407 30.0933 17.3741 30.36C17.1341 30.6267 16.8274 30.76 16.4541 30.76C16.0807 30.76 15.7607 30.6267 15.4941 30.36C15.2274 30.0933 15.0941 29.7733 15.0941 29.4V18.12ZM4.45406 22.36C4.45406 23.1067 4.7074 23.72 5.21406 24.2C5.7474 24.6533 6.36073 24.88 7.05406 24.88C7.77406 24.88 8.3874 24.6533 8.89406 24.2C9.40073 23.72 9.65406 23.1067 9.65406 22.36C9.65406 21.5867 9.40073 20.9733 8.89406 20.52C8.3874 20.0667 7.77406 19.84 7.05406 19.84C6.36073 19.84 5.7474 20.0667 5.21406 20.52C4.7074 20.9733 4.45406 21.5867 4.45406 22.36ZM26.2156 40.08C26.2156 38.6667 26.7223 37.5067 27.7356 36.6C28.749 35.6933 29.989 35.24 31.4556 35.24C32.8956 35.24 34.1223 35.6933 35.1356 36.6C36.149 37.5067 36.6556 38.6667 36.6556 40.08C36.6556 41.52 36.149 42.68 35.1356 43.56C34.1223 44.4667 32.8956 44.92 31.4556 44.92C29.989 44.92 28.749 44.4667 27.7356 43.56C26.7223 42.68 26.2156 41.52 26.2156 40.08ZM35.7356 25.12C35.3356 24.6933 34.949 24.4933 34.5756 24.52C34.229 24.5467 33.8556 24.76 33.4556 25.16C32.7623 25.8533 32.1356 26.2 31.5756 26.2C31.0156 26.2 30.3623 25.8533 29.6156 25.16C29.2156 24.7867 28.8423 24.5867 28.4956 24.56C28.1756 24.5333 27.8023 24.72 27.3756 25.12L25.3356 27.2C25.069 27.44 24.749 27.5467 24.3756 27.52C24.0023 27.4933 23.6823 27.36 23.4156 27.12C23.1756 26.88 23.0423 26.5733 23.0156 26.2C23.0156 25.8 23.1623 25.4667 23.4556 25.2C24.309 24.4533 24.9756 23.7867 25.4556 23.2C25.9623 22.5867 26.3223 21.9467 26.5356 21.28C26.7756 20.5867 26.8956 19.76 26.8956 18.8C26.949 17.9467 27.3756 17.52 28.1756 17.52C28.549 17.52 28.869 17.64 29.1356 17.88C29.429 18.0933 29.5623 18.4 29.5356 18.8C29.509 19.92 29.5756 20.8133 29.7356 21.48C29.9223 22.1467 30.2956 22.72 30.8556 23.2C31.2556 23.4933 31.669 23.4933 32.0956 23.2C32.629 22.7467 32.989 22.2 33.1756 21.56C33.389 20.92 33.469 19.9867 33.4156 18.76C33.389 18.3333 33.509 18.0133 33.7756 17.8C34.0423 17.56 34.3623 17.44 34.7356 17.44C35.109 17.44 35.429 17.56 35.6956 17.8C35.989 18.0133 36.1223 18.3333 36.0956 18.76C36.069 19.8533 36.189 20.7733 36.4556 21.52C36.7223 22.24 37.1223 22.88 37.6556 23.44C38.189 23.9733 38.789 24.5467 39.4556 25.16C39.6956 25.3733 39.8023 25.6667 39.7756 26.04C39.7756 26.3867 39.6556 26.7067 39.4156 27C39.149 27.2667 38.8156 27.4 38.4156 27.4C38.0423 27.3733 37.749 27.2267 37.5356 26.96L35.7356 25.12ZM32.8156 29.36C32.8156 29.7333 32.869 30.0667 32.9756 30.36C33.0823 30.6267 33.4156 30.76 33.9756 30.76H37.0156C37.469 30.76 37.8023 30.8933 38.0156 31.16C38.229 31.4267 38.3356 31.7067 38.3356 32C38.3356 32.3467 38.2156 32.6533 37.9756 32.92C37.7356 33.16 37.4156 33.28 37.0156 33.28H25.8156C25.4156 33.28 25.0956 33.16 24.8556 32.92C24.6423 32.6533 24.5356 32.3467 24.5356 32C24.5356 31.7067 24.6423 31.4267 24.8556 31.16C25.069 30.8933 25.389 30.76 25.8156 30.76H28.9356C29.4956 30.76 29.829 30.6267 29.9356 30.36C30.0423 30.0667 30.0956 29.7333 30.0956 29.36V28.32C30.0956 27.92 30.2156 27.6 30.4556 27.36C30.6956 27.12 31.0156 27 31.4156 27C31.869 27 32.2156 27.1333 32.4556 27.4C32.6956 27.64 32.8156 27.9467 32.8156 28.32V29.36ZM28.8556 40.08C28.8556 40.8267 29.109 41.4133 29.6156 41.84C30.1223 42.2933 30.7356 42.52 31.4556 42.52C32.149 42.52 32.7356 42.2933 33.2156 41.84C33.6956 41.4133 33.9356 40.8267 33.9356 40.08C33.9356 39.36 33.6956 38.7733 33.2156 38.32C32.7356 37.8667 32.149 37.64 31.4556 37.64C30.7356 37.64 30.1223 37.8667 29.6156 38.32C29.109 38.7733 28.8556 39.36 28.8556 40.08ZM55.3647 31.88C56.0314 31.88 56.5647 32.0667 56.9647 32.44C57.3914 32.8133 57.6047 33.3467 57.6047 34.04V37.84C57.6047 38.5067 57.378 39.0267 56.9247 39.4C56.4714 39.7733 55.9514 39.96 55.3647 39.96H52.0447C51.5114 39.96 51.138 40.1067 50.9247 40.4C50.738 40.72 50.6447 41.04 50.6447 41.36V41.68C50.6447 42.0533 50.738 42.4267 50.9247 42.8C51.1114 43.1733 51.538 43.36 52.2047 43.36H56.6847C57.058 43.36 57.3647 43.4667 57.6047 43.68C57.8714 43.92 58.0047 44.2267 58.0047 44.6C58.0047 44.9733 57.8714 45.2667 57.6047 45.48C57.3647 45.72 57.058 45.84 56.6847 45.84H50.1647C49.578 45.84 49.058 45.64 48.6047 45.24C48.178 44.8667 47.9647 44.3467 47.9647 43.68V39.84C47.9647 39.1467 48.1914 38.5867 48.6447 38.16C49.098 37.7333 49.658 37.52 50.3247 37.52H53.4847C54.018 37.52 54.378 37.3867 54.5647 37.12C54.778 36.8533 54.8847 36.5467 54.8847 36.2V35.84C54.8847 35.4667 54.778 35.12 54.5647 34.8C54.378 34.5067 53.9647 34.36 53.3247 34.36H49.3647C48.9914 34.36 48.6714 34.24 48.4047 34C48.1647 33.7867 48.0447 33.4933 48.0447 33.12C48.0447 32.7467 48.1647 32.4533 48.4047 32.24C48.6714 32 48.9914 31.88 49.3647 31.88H55.3647ZM45.0047 27.52C44.3647 27.52 43.8314 27.32 43.4047 26.92C43.0047 26.4933 42.8047 25.9467 42.8047 25.28V20.12C42.8047 19.4533 43.0047 18.92 43.4047 18.52C43.8314 18.12 44.3647 17.92 45.0047 17.92H51.6047C51.978 17.92 52.2847 18.04 52.5247 18.28C52.7914 18.52 52.9247 18.8267 52.9247 19.2C52.9247 19.5733 52.7914 19.88 52.5247 20.12C52.2847 20.3333 51.978 20.44 51.6047 20.44H47.1247C46.5114 20.44 46.0847 20.6133 45.8447 20.96C45.6047 21.3067 45.4847 21.6533 45.4847 22V23.24C45.4847 23.6667 45.578 24.0667 45.7647 24.44C45.978 24.8133 46.418 25 47.0847 25H51.7647C52.138 25 52.4447 25.1067 52.6847 25.32C52.9247 25.5333 53.0447 25.8267 53.0447 26.2C53.0447 26.6 52.9247 26.92 52.6847 27.16C52.4447 27.3733 52.138 27.4933 51.7647 27.52H45.0047ZM55.4847 18.12C55.4847 17.72 55.6047 17.4 55.8447 17.16C56.1114 16.92 56.4447 16.8 56.8447 16.8C57.3247 16.8 57.658 16.9333 57.8447 17.2C58.058 17.44 58.1647 17.7467 58.1647 18.12V20.44C58.1647 20.7867 58.218 21.0933 58.3247 21.36C58.458 21.6267 58.8047 21.76 59.3647 21.76H60.7247C61.178 21.76 61.498 21.8933 61.6847 22.16C61.898 22.4267 62.0047 22.7067 62.0047 23C62.0047 23.8 61.578 24.2 60.7247 24.2H59.3647C58.858 24.2 58.5247 24.32 58.3647 24.56C58.2314 24.7733 58.1647 25.0667 58.1647 25.44V29.4C58.1647 29.7733 58.0314 30.0933 57.7647 30.36C57.5247 30.6267 57.218 30.76 56.8447 30.76C56.4714 30.76 56.1514 30.6267 55.8847 30.36C55.618 30.0933 55.4847 29.7733 55.4847 29.4V18.12ZM66.6063 40.08C66.6063 38.6667 67.1129 37.5067 68.1263 36.6C69.1396 35.6933 70.3796 35.24 71.8463 35.24C73.2863 35.24 74.5129 35.6933 75.5263 36.6C76.5396 37.5067 77.0463 38.6667 77.0463 40.08C77.0463 41.52 76.5396 42.68 75.5263 43.56C74.5129 44.4667 73.2863 44.92 71.8463 44.92C70.3796 44.92 69.1396 44.4667 68.1263 43.56C67.1129 42.68 66.6063 41.52 66.6063 40.08ZM76.1263 25.12C75.7263 24.6933 75.3396 24.4933 74.9663 24.52C74.6196 24.5467 74.2463 24.76 73.8463 25.16C73.1529 25.8533 72.5263 26.2 71.9663 26.2C71.4063 26.2 70.7529 25.8533 70.0063 25.16C69.6063 24.7867 69.2329 24.5867 68.8863 24.56C68.5663 24.5333 68.1929 24.72 67.7663 25.12L65.7263 27.2C65.4596 27.44 65.1396 27.5467 64.7663 27.52C64.3929 27.4933 64.0729 27.36 63.8063 27.12C63.5663 26.88 63.4329 26.5733 63.4063 26.2C63.4063 25.8 63.5529 25.4667 63.8463 25.2C64.6996 24.4533 65.3663 23.7867 65.8463 23.2C66.3529 22.5867 66.7129 21.9467 66.9263 21.28C67.1663 20.5867 67.2863 19.76 67.2863 18.8C67.3396 17.9467 67.7663 17.52 68.5663 17.52C68.9396 17.52 69.2596 17.64 69.5263 17.88C69.8196 18.0933 69.9529 18.4 69.9263 18.8C69.8996 19.92 69.9663 20.8133 70.1263 21.48C70.3129 22.1467 70.6863 22.72 71.2463 23.2C71.6463 23.4933 72.0596 23.4933 72.4863 23.2C73.0196 22.7467 73.3796 22.2 73.5663 21.56C73.7796 20.92 73.8596 19.9867 73.8063 18.76C73.7796 18.3333 73.8996 18.0133 74.1662 17.8C74.4329 17.56 74.7529 17.44 75.1263 17.44C75.4996 17.44 75.8196 17.56 76.0863 17.8C76.3796 18.0133 76.5129 18.3333 76.4863 18.76C76.4596 19.8533 76.5796 20.7733 76.8463 21.52C77.1129 22.24 77.5129 22.88 78.0463 23.44C78.5796 23.9733 79.1796 24.5467 79.8463 25.16C80.0863 25.3733 80.1929 25.6667 80.1663 26.04C80.1663 26.3867 80.0463 26.7067 79.8063 27C79.5396 27.2667 79.2063 27.4 78.8063 27.4C78.4329 27.3733 78.1396 27.2267 77.9263 26.96L76.1263 25.12ZM73.2063 29.36C73.2063 29.7333 73.2596 30.0667 73.3663 30.36C73.4729 30.6267 73.8063 30.76 74.3663 30.76H77.4063C77.8596 30.76 78.1929 30.8933 78.4063 31.16C78.6196 31.4267 78.7263 31.7067 78.7263 32C78.7263 32.3467 78.6063 32.6533 78.3663 32.92C78.1263 33.16 77.8063 33.28 77.4063 33.28H66.2063C65.8063 33.28 65.4863 33.16 65.2463 32.92C65.0329 32.6533 64.9263 32.3467 64.9263 32C64.9263 31.7067 65.0329 31.4267 65.2463 31.16C65.4596 30.8933 65.7796 30.76 66.2063 30.76H69.3263C69.8863 30.76 70.2196 30.6267 70.3263 30.36C70.4329 30.0667 70.4863 29.7333 70.4863 29.36V28.32C70.4863 27.92 70.6063 27.6 70.8463 27.36C71.0863 27.12 71.4063 27 71.8063 27C72.2596 27 72.6063 27.1333 72.8463 27.4C73.0863 27.64 73.2063 27.9467 73.2063 28.32V29.36ZM69.2463 40.08C69.2463 40.8267 69.4996 41.4133 70.0063 41.84C70.5129 42.2933 71.1263 42.52 71.8463 42.52C72.5396 42.52 73.1263 42.2933 73.6063 41.84C74.0863 41.4133 74.3263 40.8267 74.3263 40.08C74.3263 39.36 74.0863 38.7733 73.6063 38.32C73.1263 37.8667 72.5396 37.64 71.8463 37.64C71.1263 37.64 70.5129 37.8667 70.0063 38.32C69.4996 38.7733 69.2463 39.36 69.2463 40.08ZM93.0353 26.84C93.0353 27.24 92.902 27.5733 92.6353 27.84C92.3686 28.08 92.0353 28.2 91.6353 28.2C91.262 28.2 90.9553 28.08 90.7153 27.84C90.4753 27.5733 90.3553 27.24 90.3553 26.84V24.92C90.3553 24.52 90.262 24.2533 90.0753 24.12C89.8886 23.96 89.6086 23.88 89.2353 23.88H84.3153C83.9153 23.88 83.5953 23.76 83.3553 23.52C83.1153 23.28 82.9953 22.9867 82.9953 22.64C82.9953 22.2933 83.1153 22.0133 83.3553 21.8C83.5953 21.56 83.9153 21.44 84.3153 21.44H89.1153C89.942 21.44 90.3553 21.0533 90.3553 20.28V20C90.3553 19.5467 90.2486 19.2133 90.0353 19C89.8486 18.7867 89.4086 18.68 88.7153 18.68H84.1553C83.7553 18.68 83.422 18.5733 83.1553 18.36C82.9153 18.1467 82.7953 17.8533 82.7953 17.48C82.7953 17.1067 82.9153 16.8133 83.1553 16.6C83.422 16.36 83.7553 16.24 84.1553 16.24H90.7953C91.4086 16.24 91.9286 16.4267 92.3553 16.8C92.8086 17.1733 93.0353 17.7067 93.0353 18.4V26.84ZM95.8753 18.12C95.8753 17.72 95.9953 17.4 96.2353 17.16C96.502 16.92 96.8353 16.8 97.2353 16.8C97.7153 16.8 98.0486 16.9333 98.2353 17.2C98.4486 17.44 98.5553 17.7467 98.5553 18.12V20.44C98.5553 20.7867 98.6086 21.0933 98.7153 21.36C98.8486 21.6267 99.1953 21.76 99.7553 21.76H101.115C101.569 21.76 101.889 21.8933 102.075 22.16C102.289 22.4267 102.395 22.7067 102.395 23C102.395 23.8 101.969 24.2 101.115 24.2H99.7553C99.2486 24.2 98.9153 24.32 98.7553 24.56C98.622 24.7733 98.5553 25.0667 98.5553 25.44V29.4C98.5553 29.7733 98.422 30.0933 98.1553 30.36C97.9153 30.6267 97.6086 30.76 97.2353 30.76C96.862 30.76 96.542 30.6267 96.2753 30.36C96.0086 30.0933 95.8753 29.7733 95.8753 29.4V18.12ZM97.9953 39.88C97.9953 40.2533 97.862 40.56 97.5953 40.8C97.3553 41.04 97.0353 41.16 96.6353 41.16C96.262 41.16 95.942 41.04 95.6753 40.8C95.4353 40.56 95.3153 40.2533 95.3153 39.88V36.36C95.3153 35.9067 95.182 35.4667 94.9153 35.04C94.6753 34.6133 94.2086 34.4 93.5153 34.4H89.0753C88.702 34.4 88.382 34.28 88.1153 34.04C87.8753 33.8267 87.7553 33.5333 87.7553 33.16C87.7553 32.7867 87.8753 32.4933 88.1153 32.28C88.382 32.04 88.702 31.92 89.0753 31.92H95.7953C96.4086 31.92 96.9286 32.1067 97.3553 32.48C97.782 32.8533 97.9953 33.3867 97.9953 34.08V39.88ZM106.997 40.08C106.997 38.6667 107.504 37.5067 108.517 36.6C109.53 35.6933 110.77 35.24 112.237 35.24C113.677 35.24 114.904 35.6933 115.917 36.6C116.93 37.5067 117.437 38.6667 117.437 40.08C117.437 41.52 116.93 42.68 115.917 43.56C114.904 44.4667 113.677 44.92 112.237 44.92C110.77 44.92 109.53 44.4667 108.517 43.56C107.504 42.68 106.997 41.52 106.997 40.08ZM116.517 25.12C116.117 24.6933 115.73 24.4933 115.357 24.52C115.01 24.5467 114.637 24.76 114.237 25.16C113.544 25.8533 112.917 26.2 112.357 26.2C111.797 26.2 111.144 25.8533 110.397 25.16C109.997 24.7867 109.624 24.5867 109.277 24.56C108.957 24.5333 108.584 24.72 108.157 25.12L106.117 27.2C105.85 27.44 105.53 27.5467 105.157 27.52C104.784 27.4933 104.464 27.36 104.197 27.12C103.957 26.88 103.824 26.5733 103.797 26.2C103.797 25.8 103.944 25.4667 104.237 25.2C105.09 24.4533 105.757 23.7867 106.237 23.2C106.744 22.5867 107.104 21.9467 107.317 21.28C107.557 20.5867 107.677 19.76 107.677 18.8C107.73 17.9467 108.157 17.52 108.957 17.52C109.33 17.52 109.65 17.64 109.917 17.88C110.21 18.0933 110.344 18.4 110.317 18.8C110.29 19.92 110.357 20.8133 110.517 21.48C110.704 22.1467 111.077 22.72 111.637 23.2C112.037 23.4933 112.45 23.4933 112.877 23.2C113.41 22.7467 113.77 22.2 113.957 21.56C114.17 20.92 114.25 19.9867 114.197 18.76C114.17 18.3333 114.29 18.0133 114.557 17.8C114.824 17.56 115.144 17.44 115.517 17.44C115.89 17.44 116.21 17.56 116.477 17.8C116.77 18.0133 116.904 18.3333 116.877 18.76C116.85 19.8533 116.97 20.7733 117.237 21.52C117.504 22.24 117.904 22.88 118.437 23.44C118.97 23.9733 119.57 24.5467 120.237 25.16C120.477 25.3733 120.584 25.6667 120.557 26.04C120.557 26.3867 120.437 26.7067 120.197 27C119.93 27.2667 119.597 27.4 119.197 27.4C118.824 27.3733 118.53 27.2267 118.317 26.96L116.517 25.12ZM113.597 29.36C113.597 29.7333 113.65 30.0667 113.757 30.36C113.864 30.6267 114.197 30.76 114.757 30.76H117.797C118.25 30.76 118.584 30.8933 118.797 31.16C119.01 31.4267 119.117 31.7067 119.117 32C119.117 32.3467 118.997 32.6533 118.757 32.92C118.517 33.16 118.197 33.28 117.797 33.28H106.597C106.197 33.28 105.877 33.16 105.637 32.92C105.424 32.6533 105.317 32.3467 105.317 32C105.317 31.7067 105.424 31.4267 105.637 31.16C105.85 30.8933 106.17 30.76 106.597 30.76H109.717C110.277 30.76 110.61 30.6267 110.717 30.36C110.824 30.0667 110.877 29.7333 110.877 29.36V28.32C110.877 27.92 110.997 27.6 111.237 27.36C111.477 27.12 111.797 27 112.197 27C112.65 27 112.997 27.1333 113.237 27.4C113.477 27.64 113.597 27.9467 113.597 28.32V29.36ZM109.637 40.08C109.637 40.8267 109.89 41.4133 110.397 41.84C110.904 42.2933 111.517 42.52 112.237 42.52C112.93 42.52 113.517 42.2933 113.997 41.84C114.477 41.4133 114.717 40.8267 114.717 40.08C114.717 39.36 114.477 38.7733 113.997 38.32C113.517 37.8667 112.93 37.64 112.237 37.64C111.517 37.64 110.904 37.8667 110.397 38.32C109.89 38.7733 109.637 39.36 109.637 40.08Z" fill="#FC619C"/>
<path d="M45.3912 73.64C45.3912 73.92 45.3012 74.16 45.1212 74.36C44.9412 74.56 44.7112 74.66 44.4312 74.66C44.1512 74.66 43.9112 74.56 43.7112 74.36C43.5312 74.16 43.4412 73.92 43.4412 73.64V70.64C43.4412 70.42 43.3812 70.22 43.2612 70.04C43.1612 69.84 42.9212 69.74 42.5412 69.74H42.3012C42.0012 69.76 41.7812 69.86 41.6412 70.04C41.5212 70.2 41.4612 70.4 41.4612 70.64V73.49C41.4612 73.77 41.3712 74.01 41.1912 74.21C41.0112 74.41 40.7812 74.51 40.5012 74.51C40.2012 74.51 39.9612 74.41 39.7812 74.21C39.6012 74.01 39.5112 73.77 39.5112 73.49V65.18C39.5112 64.52 39.8412 64.19 40.5012 64.19C40.9612 64.21 41.2312 64.36 41.3112 64.64C41.4112 64.9 41.4612 65.08 41.4612 65.18V66.89C41.4612 67.15 41.5112 67.39 41.6112 67.61C41.7112 67.83 41.9512 67.94 42.3312 67.94H42.5712C42.9712 67.92 43.2112 67.81 43.2912 67.61C43.3912 67.39 43.4412 67.15 43.4412 66.89V65.18C43.4412 65.08 43.4912 64.9 43.5912 64.64C43.7112 64.36 43.9912 64.21 44.4312 64.19C45.0712 64.19 45.3912 64.52 45.3912 65.18V73.64ZM37.7712 71.33C37.7712 71.63 37.6712 71.88 37.4712 72.08C37.2712 72.26 37.0212 72.35 36.7212 72.35C36.4412 72.35 36.2012 72.26 36.0012 72.08C35.8212 71.88 35.7312 71.63 35.7312 71.33V68.48C35.7312 68.12 35.6412 67.79 35.4612 67.49C35.2812 67.17 34.9312 67.01 34.4112 67.01H31.1112C30.8112 67.01 30.5612 66.93 30.3612 66.77C30.1812 66.59 30.0912 66.36 30.0912 66.08C30.0912 65.8 30.1812 65.57 30.3612 65.39C30.5612 65.21 30.8112 65.12 31.1112 65.12H36.0912C36.5512 65.12 36.9412 65.26 37.2612 65.54C37.6012 65.82 37.7712 66.23 37.7712 66.77V71.33ZM50.0436 72.14C49.5636 72.14 49.1636 71.99 48.8436 71.69C48.5436 71.37 48.3936 70.96 48.3936 70.46V64.16C48.3936 63.88 48.4836 63.65 48.6636 63.47C48.8636 63.27 49.1136 63.17 49.4136 63.17C49.6936 63.17 49.9236 63.27 50.1036 63.47C50.3036 63.65 50.4036 63.88 50.4036 64.16V65C50.4036 65.54 50.6236 65.8 51.0636 65.78H53.1036C53.3836 65.78 53.5636 65.71 53.6436 65.57C53.7236 65.43 53.7636 65.23 53.7636 64.97V64.04C53.7636 63.76 53.8536 63.53 54.0336 63.35C54.2336 63.15 54.4736 63.05 54.7536 63.05C55.0536 63.05 55.2936 63.15 55.4736 63.35C55.6736 63.53 55.7736 63.76 55.7736 64.04V70.46C55.7736 70.96 55.6236 71.37 55.3236 71.69C55.0236 71.99 54.6236 72.14 54.1236 72.14H50.0436ZM57.8136 75.41C58.3136 75.41 58.7136 75.55 59.0136 75.83C59.3336 76.11 59.4936 76.51 59.4936 77.03V79.88C59.4936 80.38 59.3236 80.77 58.9836 81.05C58.6436 81.33 58.2536 81.47 57.8136 81.47H55.3236C54.9236 81.47 54.6436 81.58 54.4836 81.8C54.3436 82.04 54.2736 82.28 54.2736 82.52V82.76C54.2736 83.04 54.3436 83.32 54.4836 83.6C54.6236 83.88 54.9436 84.02 55.4436 84.02H58.8036C59.0836 84.02 59.3136 84.1 59.4936 84.26C59.6936 84.44 59.7936 84.67 59.7936 84.95C59.7936 85.23 59.6936 85.45 59.4936 85.61C59.3136 85.79 59.0836 85.88 58.8036 85.88H53.9136C53.4736 85.88 53.0836 85.73 52.7436 85.43C52.4236 85.15 52.2636 84.76 52.2636 84.26V81.38C52.2636 80.86 52.4336 80.44 52.7736 80.12C53.1136 79.8 53.5336 79.64 54.0336 79.64H56.4036C56.8036 79.64 57.0736 79.54 57.2136 79.34C57.3736 79.14 57.4536 78.91 57.4536 78.65V78.38C57.4536 78.1 57.3736 77.84 57.2136 77.6C57.0736 77.38 56.7636 77.27 56.2836 77.27H53.3136C53.0336 77.27 52.7936 77.18 52.5936 77C52.4136 76.84 52.3236 76.62 52.3236 76.34C52.3236 76.06 52.4136 75.84 52.5936 75.68C52.7936 75.5 53.0336 75.41 53.3136 75.41H57.8136ZM57.9036 65.09C57.9036 64.79 57.9936 64.55 58.1736 64.37C58.3736 64.19 58.6236 64.1 58.9236 64.1C59.2836 64.1 59.5336 64.2 59.6736 64.4C59.8336 64.58 59.9136 64.81 59.9136 65.09V66.83C59.9136 67.09 59.9536 67.32 60.0336 67.52C60.1336 67.72 60.3936 67.82 60.8136 67.82H61.8336C62.1736 67.82 62.4136 67.92 62.5536 68.12C62.7136 68.32 62.7936 68.53 62.7936 68.75C62.7936 69.35 62.4736 69.65 61.8336 69.65H60.8136C60.4336 69.65 60.1836 69.74 60.0636 69.92C59.9636 70.08 59.9136 70.3 59.9136 70.58V73.55C59.9136 73.83 59.8136 74.07 59.6136 74.27C59.4336 74.47 59.2036 74.57 58.9236 74.57C58.6436 74.57 58.4036 74.47 58.2036 74.27C58.0036 74.07 57.9036 73.83 57.9036 73.55V65.09ZM50.3436 69.26C50.3436 69.58 50.3836 69.83 50.4636 70.01C50.5636 70.17 50.8336 70.25 51.2736 70.25H52.8036C53.2436 70.25 53.5136 70.17 53.6136 70.01C53.7336 69.83 53.7936 69.58 53.7936 69.26V68.42C53.7936 68.14 53.7336 67.92 53.6136 67.76C53.5136 67.6 53.2336 67.52 52.7736 67.52H51.3336C50.9136 67.52 50.6436 67.6 50.5236 67.76C50.4036 67.92 50.3436 68.14 50.3436 68.42V69.26ZM70.3847 67.01C70.1247 67.01 69.9647 67.09 69.9047 67.25C69.8647 67.41 69.8547 67.53 69.8747 67.61C69.9747 67.97 70.2047 68.32 70.5647 68.66C70.9447 69 71.3547 69.33 71.7947 69.65C72.2547 69.95 72.6347 70.22 72.9347 70.46C73.1347 70.6 73.2347 70.8 73.2347 71.06C73.2347 71.32 73.1347 71.56 72.9347 71.78C72.7947 71.94 72.5847 72.03 72.3047 72.05C72.0247 72.07 71.7747 71.99 71.5547 71.81L69.9047 70.28C69.5247 69.94 69.1847 69.78 68.8847 69.8C68.5847 69.8 68.2347 69.97 67.8347 70.31L66.0647 71.9C65.8447 72.08 65.5947 72.17 65.3147 72.17C65.0547 72.15 64.8347 72.06 64.6547 71.9C64.4547 71.68 64.3447 71.43 64.3247 71.15C64.3247 70.85 64.4247 70.63 64.6247 70.49C64.9647 70.25 65.3547 69.98 65.7947 69.68C66.2347 69.38 66.6347 69.06 66.9947 68.72C67.3747 68.36 67.6147 67.99 67.7147 67.61C67.7547 67.47 67.7347 67.34 67.6547 67.22C67.5747 67.08 67.4247 67.01 67.2047 67.01H65.5847C65.3047 67.01 65.0747 66.92 64.8947 66.74C64.7147 66.56 64.6247 66.33 64.6247 66.05C64.6247 65.77 64.7147 65.55 64.8947 65.39C65.0747 65.21 65.3047 65.12 65.5847 65.12H72.0647C72.3447 65.12 72.5747 65.21 72.7547 65.39C72.9347 65.55 73.0247 65.77 73.0247 66.05C73.0247 66.33 72.9347 66.56 72.7547 66.74C72.5747 66.92 72.3447 67.01 72.0647 67.01H70.3847ZM74.8547 65.09C74.8547 64.79 74.9447 64.55 75.1247 64.37C75.3247 64.19 75.5747 64.1 75.8747 64.1C76.2347 64.1 76.4847 64.2 76.6247 64.4C76.7847 64.58 76.8647 64.81 76.8647 65.09V66.83C76.8647 67.09 76.9047 67.32 76.9847 67.52C77.0847 67.72 77.3447 67.82 77.7647 67.82H78.7847C79.1247 67.82 79.3647 67.92 79.5047 68.12C79.6647 68.32 79.7447 68.53 79.7447 68.75C79.7447 69.35 79.4247 69.65 78.7847 69.65H77.7647C77.3847 69.65 77.1347 69.74 77.0147 69.92C76.9147 70.08 76.8647 70.3 76.8647 70.58V73.55C76.8647 73.83 76.7647 74.07 76.5647 74.27C76.3847 74.47 76.1547 74.57 75.8747 74.57C75.5947 74.57 75.3547 74.47 75.1547 74.27C74.9547 74.07 74.8547 73.83 74.8547 73.55V65.09ZM88.2776 78.29C88.7776 78.29 89.1776 78.43 89.4776 78.71C89.7976 78.99 89.9576 79.39 89.9576 79.91V82.76C89.9576 83.26 89.7876 83.65 89.4476 83.93C89.1076 84.21 88.7176 84.35 88.2776 84.35H85.7876C85.3876 84.35 85.1076 84.46 84.9476 84.68C84.8076 84.92 84.7376 85.16 84.7376 85.4V85.64C84.7376 85.92 84.8076 86.2 84.9476 86.48C85.0876 86.76 85.4076 86.9 85.9076 86.9H89.2676C89.5476 86.9 89.7776 86.98 89.9576 87.14C90.1576 87.32 90.2576 87.55 90.2576 87.83C90.2576 88.11 90.1576 88.33 89.9576 88.49C89.7776 88.67 89.5476 88.76 89.2676 88.76H84.3776C83.9376 88.76 83.5476 88.61 83.2076 88.31C82.8876 88.03 82.7276 87.64 82.7276 87.14V84.26C82.7276 83.74 82.8976 83.32 83.2376 83C83.5776 82.68 83.9976 82.52 84.4976 82.52H86.8676C87.2676 82.52 87.5376 82.42 87.6776 82.22C87.8376 82.02 87.9176 81.79 87.9176 81.53V81.26C87.9176 80.98 87.8376 80.72 87.6776 80.48C87.5376 80.26 87.2276 80.15 86.7476 80.15H83.7776C83.4976 80.15 83.2576 80.06 83.0576 79.88C82.8776 79.72 82.7876 79.5 82.7876 79.22C82.7876 78.94 82.8776 78.71 83.0576 78.53C83.2576 78.37 83.4976 78.29 83.7776 78.29H88.2776ZM84.2576 72.14C83.7776 72.14 83.3776 71.99 83.0576 71.69C82.7576 71.37 82.6076 70.96 82.6076 70.46V66.59C82.6076 66.09 82.7576 65.69 83.0576 65.39C83.3776 65.09 83.7776 64.94 84.2576 64.94H89.2076C89.4876 64.94 89.7176 65.03 89.8976 65.21C90.0976 65.39 90.1976 65.62 90.1976 65.9C90.1976 66.18 90.0976 66.41 89.8976 66.59C89.7176 66.75 89.4876 66.83 89.2076 66.83H85.8476C85.3876 66.83 85.0676 66.96 84.8876 67.22C84.7076 67.48 84.6176 67.74 84.6176 68V68.93C84.6176 69.25 84.6876 69.55 84.8276 69.83C84.9876 70.11 85.3176 70.25 85.8176 70.25H89.3276C89.6076 70.25 89.8376 70.33 90.0176 70.49C90.1976 70.65 90.2876 70.87 90.2876 71.15C90.2876 71.45 90.1976 71.69 90.0176 71.87C89.8376 72.03 89.6076 72.12 89.3276 72.14H84.2576ZM82.0376 76.01C81.4176 76.01 81.1076 75.7 81.1076 75.08C81.1076 74.8 81.1876 74.57 81.3476 74.39C81.5276 74.21 81.7576 74.12 82.0376 74.12H90.4976C90.7776 74.12 91.0076 74.21 91.1876 74.39C91.3676 74.57 91.4576 74.8 91.4576 75.08C91.4576 75.36 91.3676 75.59 91.1876 75.77C91.0076 75.93 90.7776 76.01 90.4976 76.01H82.0376Z" fill="#535353"/>
<path d="M147.5 31.3125C149.524 31.3125 151.167 29.4648 151.167 27.1875C151.167 24.9102 149.524 23.0625 147.5 23.0625C146.144 23.0625 144.957 23.8918 144.323 25.125H142.314C143.07 22.723 145.106 21 147.5 21C150.537 21 153 23.7715 153 27.1875C153 30.6035 150.537 33.375 147.5 33.375C146.442 33.375 145.457 33.0398 144.617 32.4598L145.969 30.9387C146.435 31.1793 146.954 31.3125 147.5 31.3125ZM131.07 27.1359C131.211 26.7492 131.547 26.5 131.918 26.5H145.973C146.343 26.5 146.679 26.7492 146.82 27.1359C146.962 27.5227 146.885 27.9652 146.622 28.2617L139.862 35.8672V40.9375H142.306C142.814 40.9375 143.223 41.3973 143.223 41.9688C143.223 42.5402 142.814 43 142.306 43H138.945H135.584C135.076 43 134.668 42.5402 134.668 41.9688C134.668 41.3973 135.076 40.9375 135.584 40.9375H138.029V35.8629L131.268 28.2617C131.005 27.9652 130.929 27.5227 131.07 27.1359Z" fill="#FC619C"/>
</svg>
