<svg width="53" height="56" viewBox="0 0 53 56" fill="none" xmlns="http://www.w3.org/2000/svg">
<path d="M53 10.5C53 6.63906 49.6047 3.5 45.4286 3.5C44.6478 3.5 43.8906 3.60938 43.1808 3.81719C40.519 4.58281 37.4904 5.44688 34.7812 4.80156C25.8848 2.7125 16.2786 6.00469 9.49978 12.2719C2.72098 18.5391 -0.851786 27.4312 1.40781 35.6562C2.09397 38.1609 1.17121 40.95 0.34308 43.4219C0.118304 44.0781 0 44.7781 0 45.5C0 49.3609 3.39531 52.5 7.57143 52.5C8.35223 52.5 9.10938 52.3906 9.83103 52.1828C12.4929 51.4172 15.5214 50.5531 18.2306 51.1984C27.127 53.2875 36.7333 49.9953 43.5121 43.7281C50.2908 37.4609 53.8636 28.5797 51.5922 20.3547C50.906 17.85 51.8288 15.0609 52.6569 12.5891C52.8817 11.9328 53 11.2328 53 10.5ZM25.1395 13.9344C18.6801 15.6844 13.179 20.7703 11.2862 26.7422C10.9904 27.6719 9.9375 28.1969 8.93192 27.9344C7.92634 27.6719 7.35848 26.6875 7.64241 25.7578C9.90201 18.6375 16.3614 12.6547 24.0748 10.5656C25.0804 10.2922 26.1333 10.8281 26.429 11.7578C26.7248 12.6875 26.1451 13.6609 25.1395 13.9344Z" fill="#FACC15"/>
</svg>
