<svg width="68" height="26" viewBox="0 0 68 26" fill="none" xmlns="http://www.w3.org/2000/svg">
<path d="M54.5 0.5C61.4036 0.5 67 6.09644 67 13C67 19.9036 61.4036 25.5 54.5 25.5H13C6.09644 25.5 0.5 19.9036 0.5 13C0.5 6.09644 6.09644 0.5 13 0.5H54.5Z" fill="#F9F9F9" fill-opacity="0.8"/>
<path d="M54.5 0.5C61.4036 0.5 67 6.09644 67 13C67 19.9036 61.4036 25.5 54.5 25.5H13C6.09644 25.5 0.5 19.9036 0.5 13C0.5 6.09644 6.09644 0.5 13 0.5H54.5Z" stroke="#26282C"/>
<g clip-path="url(#clip0_373_214)">
<path d="M23.125 12.625C24.3671 12.625 25.375 11.6172 25.375 10.375C25.375 9.13281 24.3671 8.125 23.125 8.125C22.2929 8.125 21.564 8.57734 21.175 9.25H19.9422C20.4062 7.93984 21.6554 7 23.125 7C24.9882 7 26.5 8.51172 26.5 10.375C26.5 12.2383 24.9882 13.75 23.125 13.75C22.4757 13.75 21.8711 13.5672 21.3554 13.2508L22.1851 12.4211C22.4711 12.5523 22.7898 12.625 23.125 12.625ZM13.0421 10.3469C13.1289 10.1359 13.3351 10 13.5625 10H22.1875C22.4148 10 22.6211 10.1359 22.7078 10.3469C22.7945 10.5578 22.7476 10.7992 22.5859 10.9609L18.4375 15.1094V17.875H19.9375C20.2492 17.875 20.5 18.1258 20.5 18.4375C20.5 18.7492 20.2492 19 19.9375 19H17.875H15.8125C15.5007 19 15.25 18.7492 15.25 18.4375C15.25 18.1258 15.5007 17.875 15.8125 17.875H17.3125V15.107L13.164 10.9609C13.0023 10.7992 12.9554 10.5578 13.0421 10.3469Z" fill="#FF9F1C"/>
</g>
<path d="M35.216 12.536H36.8V14.492H35.216V12.536ZM30.98 11.996H41.036V13.268H30.98V11.996ZM35.984 14.048C37.184 14.048 38.128 14.224 38.816 14.576C39.504 14.92 39.848 15.416 39.848 16.064C39.848 16.696 39.504 17.188 38.816 17.54C38.128 17.892 37.184 18.068 35.984 18.068C34.784 18.068 33.84 17.892 33.152 17.54C32.472 17.188 32.132 16.696 32.132 16.064C32.132 15.416 32.472 14.92 33.152 14.576C33.84 14.224 34.784 14.048 35.984 14.048ZM35.984 15.26C35.488 15.26 35.072 15.288 34.736 15.344C34.408 15.4 34.16 15.488 33.992 15.608C33.824 15.72 33.74 15.872 33.74 16.064C33.74 16.24 33.824 16.388 33.992 16.508C34.16 16.628 34.408 16.716 34.736 16.772C35.072 16.828 35.488 16.856 35.984 16.856C36.48 16.856 36.892 16.828 37.22 16.772C37.556 16.716 37.808 16.628 37.976 16.508C38.144 16.388 38.228 16.24 38.228 16.064C38.228 15.872 38.144 15.72 37.976 15.608C37.808 15.488 37.556 15.4 37.22 15.344C36.892 15.288 36.48 15.26 35.984 15.26ZM34.916 8H36.332V8.264C36.332 8.6 36.272 8.92 36.152 9.224C36.032 9.528 35.852 9.812 35.612 10.076C35.38 10.332 35.088 10.564 34.736 10.772C34.384 10.98 33.976 11.152 33.512 11.288C33.048 11.424 32.532 11.52 31.964 11.576L31.412 10.316C31.9 10.276 32.332 10.208 32.708 10.112C33.092 10.016 33.42 9.9 33.692 9.764C33.972 9.62 34.2 9.468 34.376 9.308C34.56 9.14 34.696 8.968 34.784 8.792C34.872 8.616 34.916 8.44 34.916 8.264V8ZM35.696 8H37.1V8.264C37.1 8.44 37.144 8.62 37.232 8.804C37.32 8.98 37.452 9.148 37.628 9.308C37.812 9.468 38.04 9.62 38.312 9.764C38.592 9.9 38.92 10.016 39.296 10.112C39.68 10.208 40.116 10.276 40.604 10.316L40.052 11.576C39.484 11.52 38.968 11.424 38.504 11.288C38.04 11.152 37.632 10.984 37.28 10.784C36.936 10.576 36.644 10.344 36.404 10.088C36.172 9.824 35.996 9.54 35.876 9.236C35.756 8.924 35.696 8.6 35.696 8.264V8ZM31.904 7.412H40.136V8.672H31.904V7.412ZM46.2191 7.268H47.6111V7.796C47.6111 8.22 47.5431 8.632 47.4071 9.032C47.2791 9.424 47.0871 9.792 46.8311 10.136C46.5751 10.48 46.2631 10.788 45.8951 11.06C45.5271 11.332 45.0991 11.564 44.6111 11.756C44.1311 11.94 43.6031 12.08 43.0271 12.176L42.4031 10.892C42.9151 10.828 43.3711 10.72 43.7711 10.568C44.1791 10.416 44.5351 10.236 44.8391 10.028C45.1511 9.82 45.4071 9.592 45.6071 9.344C45.8071 9.096 45.9591 8.84 46.0631 8.576C46.1671 8.312 46.2191 8.052 46.2191 7.796V7.268ZM46.5191 7.268H47.9111V7.796C47.9111 8.052 47.9631 8.312 48.0671 8.576C48.1711 8.84 48.3231 9.096 48.5231 9.344C48.7231 9.592 48.9751 9.82 49.2791 10.028C49.5911 10.236 49.9471 10.416 50.3471 10.568C50.7551 10.72 51.2151 10.828 51.7271 10.892L51.1031 12.176C50.5191 12.08 49.9871 11.94 49.5071 11.756C49.0271 11.564 48.6031 11.332 48.2351 11.06C47.8671 10.78 47.5551 10.468 47.2991 10.124C47.0431 9.78 46.8471 9.412 46.7111 9.02C46.5831 8.628 46.5191 8.22 46.5191 7.796V7.268ZM46.2191 13.988H47.8151V18.068H46.2191V13.988ZM42.0311 12.98H52.0871V14.276H42.0311V12.98Z" fill="#FF9F1C"/>
<defs>
<clipPath id="clip0_373_214">
<path d="M13 7H26.5V19H13V7Z" fill="white"/>
</clipPath>
</defs>
</svg>
