<svg width="21" height="25" viewBox="0 0 21 25" fill="none" xmlns="http://www.w3.org/2000/svg">
<g clip-path="url(#clip0_91_471)">
<path d="M6.75 7.73438V9.98438H14.25V7.73438C14.25 5.6625 12.5719 3.98438 10.5 3.98438C8.42813 3.98438 6.75 5.6625 6.75 7.73438ZM3.75 9.98438V7.73438C3.75 4.00781 6.77344 0.984375 10.5 0.984375C14.2266 0.984375 17.25 4.00781 17.25 7.73438V9.98438H18C19.6547 9.98438 21 11.3297 21 12.9844V21.9844C21 23.6391 19.6547 24.9844 18 24.9844H3C1.34531 24.9844 0 23.6391 0 21.9844V12.9844C0 11.3297 1.34531 9.98438 3 9.98438H3.75Z" fill="#F9A8D4"/>
</g>
<defs>
<clipPath id="clip0_91_471">
<path d="M0 0.984375H21V24.9844H0V0.984375Z" fill="white"/>
</clipPath>
</defs>
</svg>
