<svg width="25" height="20" viewBox="0 0 25 20" fill="none" xmlns="http://www.w3.org/2000/svg">
<path d="M8.75 10C10.0761 10 11.3479 9.47322 12.2855 8.53553C13.2232 7.59785 13.75 6.32608 13.75 5C13.75 3.67392 13.2232 2.40215 12.2855 1.46447C11.3479 0.526784 10.0761 0 8.75 0C7.42392 0 6.15215 0.526784 5.21447 1.46447C4.27678 2.40215 3.75 3.67392 3.75 5C3.75 6.32608 4.27678 7.59785 5.21447 8.53553C6.15215 9.47322 7.42392 10 8.75 10ZM6.96484 11.875C3.11719 11.875 0 14.9922 0 18.8398C0 19.4805 0.519531 20 1.16016 20H15.3359C15.125 19.6328 15 19.207 15 18.75V13.75C15 13.668 15.0039 13.5859 15.0117 13.5039C13.8008 12.4883 12.2383 11.875 10.5352 11.875H6.96484ZM20.625 9.375C21.3164 9.375 21.875 9.93359 21.875 10.625V12.5H19.375V10.625C19.375 9.93359 19.9336 9.375 20.625 9.375ZM17.5 10.625V12.5C16.8086 12.5 16.25 13.0586 16.25 13.75V18.75C16.25 19.4414 16.8086 20 17.5 20H23.75C24.4414 20 25 19.4414 25 18.75V13.75C25 13.0586 24.4414 12.5 23.75 12.5V10.625C23.75 8.89844 22.3516 7.5 20.625 7.5C18.8984 7.5 17.5 8.89844 17.5 10.625Z" fill="#FC619C"/>
</svg>
