<svg width="152" height="58" viewBox="0 0 152 58" fill="none" xmlns="http://www.w3.org/2000/svg">
<path d="M14.56 31.88C15.2267 31.88 15.76 32.0667 16.16 32.44C16.5867 32.8133 16.8 33.3467 16.8 34.04V37.84C16.8 38.5067 16.5733 39.0267 16.12 39.4C15.6667 39.7733 15.1467 39.96 14.56 39.96H11.24C10.7067 39.96 10.3333 40.1067 10.12 40.4C9.93333 40.72 9.84 41.04 9.84 41.36V41.68C9.84 42.0533 9.93333 42.4267 10.12 42.8C10.3067 43.1733 10.7333 43.36 11.4 43.36H15.88C16.2533 43.36 16.56 43.4667 16.8 43.68C17.0667 43.92 17.2 44.2267 17.2 44.6C17.2 44.9733 17.0667 45.2667 16.8 45.48C16.56 45.72 16.2533 45.84 15.88 45.84H9.36C8.77333 45.84 8.25333 45.64 7.8 45.24C7.37333 44.8667 7.16 44.3467 7.16 43.68V39.84C7.16 39.1467 7.38667 38.5867 7.84 38.16C8.29333 37.7333 8.85333 37.52 9.52 37.52H12.68C13.2133 37.52 13.5733 37.3867 13.76 37.12C13.9733 36.8533 14.08 36.5467 14.08 36.2V35.84C14.08 35.4667 13.9733 35.12 13.76 34.8C13.5733 34.5067 13.16 34.36 12.52 34.36H8.56C8.18667 34.36 7.86667 34.24 7.6 34C7.36 33.7867 7.24 33.4933 7.24 33.12C7.24 32.7467 7.36 32.4533 7.6 32.24C7.86667 32 8.18667 31.88 8.56 31.88H14.56ZM1.4 22.36C1.4 21.3733 1.64 20.5067 2.12 19.76C2.6 19.0133 3.24 18.4267 4.04 18C4.84 17.5733 5.70667 17.36 6.64 17.36C7.6 17.36 8.48 17.5733 9.28 18C10.08 18.4267 10.72 19.0133 11.2 19.76C11.68 20.5067 11.92 21.3733 11.92 22.36C11.92 23.32 11.68 24.1867 11.2 24.96C10.72 25.7067 10.08 26.2933 9.28 26.72C8.48 27.1467 7.6 27.36 6.64 27.36C5.70667 27.36 4.84 27.1467 4.04 26.72C3.24 26.2933 2.6 25.7067 2.12 24.96C1.64 24.1867 1.4 23.32 1.4 22.36ZM14.68 18.12C14.68 17.72 14.8 17.4 15.04 17.16C15.3067 16.92 15.64 16.8 16.04 16.8C16.52 16.8 16.8533 16.9333 17.04 17.2C17.2533 17.44 17.36 17.7467 17.36 18.12V20.44C17.36 20.7867 17.4133 21.0933 17.52 21.36C17.6533 21.6267 18 21.76 18.56 21.76H19.92C20.3733 21.76 20.6933 21.8933 20.88 22.16C21.0933 22.4267 21.2 22.7067 21.2 23C21.2 23.8 20.7733 24.2 19.92 24.2H18.56C18.0533 24.2 17.72 24.32 17.56 24.56C17.4267 24.7733 17.36 25.0667 17.36 25.44V29.4C17.36 29.7733 17.2267 30.0933 16.96 30.36C16.72 30.6267 16.4133 30.76 16.04 30.76C15.6667 30.76 15.3467 30.6267 15.08 30.36C14.8133 30.0933 14.68 29.7733 14.68 29.4V18.12ZM4.04 22.36C4.04 23.1067 4.29333 23.72 4.8 24.2C5.33333 24.6533 5.94667 24.88 6.64 24.88C7.36 24.88 7.97333 24.6533 8.48 24.2C8.98667 23.72 9.24 23.1067 9.24 22.36C9.24 21.5867 8.98667 20.9733 8.48 20.52C7.97333 20.0667 7.36 19.84 6.64 19.84C5.94667 19.84 5.33333 20.0667 4.8 20.52C4.29333 20.9733 4.04 21.5867 4.04 22.36ZM25.8016 40.08C25.8016 38.6667 26.3082 37.5067 27.3216 36.6C28.3349 35.6933 29.5749 35.24 31.0416 35.24C32.4816 35.24 33.7082 35.6933 34.7216 36.6C35.7349 37.5067 36.2416 38.6667 36.2416 40.08C36.2416 41.52 35.7349 42.68 34.7216 43.56C33.7082 44.4667 32.4816 44.92 31.0416 44.92C29.5749 44.92 28.3349 44.4667 27.3216 43.56C26.3082 42.68 25.8016 41.52 25.8016 40.08ZM35.3216 25.12C34.9216 24.6933 34.5349 24.4933 34.1616 24.52C33.8149 24.5467 33.4416 24.76 33.0416 25.16C32.3482 25.8533 31.7216 26.2 31.1616 26.2C30.6016 26.2 29.9482 25.8533 29.2016 25.16C28.8016 24.7867 28.4282 24.5867 28.0816 24.56C27.7616 24.5333 27.3882 24.72 26.9616 25.12L24.9216 27.2C24.6549 27.44 24.3349 27.5467 23.9616 27.52C23.5882 27.4933 23.2682 27.36 23.0016 27.12C22.7616 26.88 22.6282 26.5733 22.6016 26.2C22.6016 25.8 22.7482 25.4667 23.0416 25.2C23.8949 24.4533 24.5616 23.7867 25.0416 23.2C25.5482 22.5867 25.9082 21.9467 26.1216 21.28C26.3616 20.5867 26.4816 19.76 26.4816 18.8C26.5349 17.9467 26.9616 17.52 27.7616 17.52C28.1349 17.52 28.4549 17.64 28.7216 17.88C29.0149 18.0933 29.1482 18.4 29.1216 18.8C29.0949 19.92 29.1616 20.8133 29.3216 21.48C29.5082 22.1467 29.8816 22.72 30.4416 23.2C30.8416 23.4933 31.2549 23.4933 31.6816 23.2C32.2149 22.7467 32.5749 22.2 32.7616 21.56C32.9749 20.92 33.0549 19.9867 33.0016 18.76C32.9749 18.3333 33.0949 18.0133 33.3616 17.8C33.6282 17.56 33.9482 17.44 34.3216 17.44C34.6949 17.44 35.0149 17.56 35.2816 17.8C35.5749 18.0133 35.7082 18.3333 35.6816 18.76C35.6549 19.8533 35.7749 20.7733 36.0416 21.52C36.3082 22.24 36.7082 22.88 37.2416 23.44C37.7749 23.9733 38.3749 24.5467 39.0416 25.16C39.2816 25.3733 39.3882 25.6667 39.3616 26.04C39.3616 26.3867 39.2416 26.7067 39.0016 27C38.7349 27.2667 38.4016 27.4 38.0016 27.4C37.6282 27.3733 37.3349 27.2267 37.1216 26.96L35.3216 25.12ZM32.4016 29.36C32.4016 29.7333 32.4549 30.0667 32.5616 30.36C32.6682 30.6267 33.0016 30.76 33.5616 30.76H36.6016C37.0549 30.76 37.3882 30.8933 37.6016 31.16C37.8149 31.4267 37.9216 31.7067 37.9216 32C37.9216 32.3467 37.8016 32.6533 37.5616 32.92C37.3216 33.16 37.0016 33.28 36.6016 33.28H25.4016C25.0016 33.28 24.6816 33.16 24.4416 32.92C24.2282 32.6533 24.1216 32.3467 24.1216 32C24.1216 31.7067 24.2282 31.4267 24.4416 31.16C24.6549 30.8933 24.9749 30.76 25.4016 30.76H28.5216C29.0816 30.76 29.4149 30.6267 29.5216 30.36C29.6282 30.0667 29.6816 29.7333 29.6816 29.36V28.32C29.6816 27.92 29.8016 27.6 30.0416 27.36C30.2816 27.12 30.6016 27 31.0016 27C31.4549 27 31.8016 27.1333 32.0416 27.4C32.2816 27.64 32.4016 27.9467 32.4016 28.32V29.36ZM28.4416 40.08C28.4416 40.8267 28.6949 41.4133 29.2016 41.84C29.7082 42.2933 30.3216 42.52 31.0416 42.52C31.7349 42.52 32.3216 42.2933 32.8016 41.84C33.2816 41.4133 33.5216 40.8267 33.5216 40.08C33.5216 39.36 33.2816 38.7733 32.8016 38.32C32.3216 37.8667 31.7349 37.64 31.0416 37.64C30.3216 37.64 29.7082 37.8667 29.2016 38.32C28.6949 38.7733 28.4416 39.36 28.4416 40.08ZM54.9506 31.88C55.6173 31.88 56.1506 32.0667 56.5506 32.44C56.9773 32.8133 57.1906 33.3467 57.1906 34.04V37.84C57.1906 38.5067 56.964 39.0267 56.5106 39.4C56.0573 39.7733 55.5373 39.96 54.9506 39.96H51.6306C51.0973 39.96 50.724 40.1067 50.5106 40.4C50.324 40.72 50.2306 41.04 50.2306 41.36V41.68C50.2306 42.0533 50.324 42.4267 50.5106 42.8C50.6973 43.1733 51.124 43.36 51.7906 43.36H56.2706C56.644 43.36 56.9506 43.4667 57.1906 43.68C57.4573 43.92 57.5906 44.2267 57.5906 44.6C57.5906 44.9733 57.4573 45.2667 57.1906 45.48C56.9506 45.72 56.644 45.84 56.2706 45.84H49.7506C49.164 45.84 48.644 45.64 48.1906 45.24C47.764 44.8667 47.5506 44.3467 47.5506 43.68V39.84C47.5506 39.1467 47.7773 38.5867 48.2306 38.16C48.684 37.7333 49.244 37.52 49.9106 37.52H53.0706C53.604 37.52 53.964 37.3867 54.1506 37.12C54.364 36.8533 54.4706 36.5467 54.4706 36.2V35.84C54.4706 35.4667 54.364 35.12 54.1506 34.8C53.964 34.5067 53.5506 34.36 52.9106 34.36H48.9506C48.5773 34.36 48.2573 34.24 47.9906 34C47.7506 33.7867 47.6306 33.4933 47.6306 33.12C47.6306 32.7467 47.7506 32.4533 47.9906 32.24C48.2573 32 48.5773 31.88 48.9506 31.88H54.9506ZM44.5906 27.52C43.9506 27.52 43.4173 27.32 42.9906 26.92C42.5906 26.4933 42.3906 25.9467 42.3906 25.28V20.12C42.3906 19.4533 42.5906 18.92 42.9906 18.52C43.4173 18.12 43.9506 17.92 44.5906 17.92H51.1906C51.564 17.92 51.8706 18.04 52.1106 18.28C52.3773 18.52 52.5106 18.8267 52.5106 19.2C52.5106 19.5733 52.3773 19.88 52.1106 20.12C51.8706 20.3333 51.564 20.44 51.1906 20.44H46.7106C46.0973 20.44 45.6706 20.6133 45.4306 20.96C45.1906 21.3067 45.0706 21.6533 45.0706 22V23.24C45.0706 23.6667 45.164 24.0667 45.3506 24.44C45.564 24.8133 46.004 25 46.6706 25H51.3506C51.724 25 52.0306 25.1067 52.2706 25.32C52.5106 25.5333 52.6306 25.8267 52.6306 26.2C52.6306 26.6 52.5106 26.92 52.2706 27.16C52.0306 27.3733 51.724 27.4933 51.3506 27.52H44.5906ZM55.0706 18.12C55.0706 17.72 55.1906 17.4 55.4306 17.16C55.6973 16.92 56.0306 16.8 56.4306 16.8C56.9106 16.8 57.244 16.9333 57.4306 17.2C57.644 17.44 57.7506 17.7467 57.7506 18.12V20.44C57.7506 20.7867 57.804 21.0933 57.9106 21.36C58.044 21.6267 58.3906 21.76 58.9506 21.76H60.3106C60.764 21.76 61.084 21.8933 61.2706 22.16C61.484 22.4267 61.5906 22.7067 61.5906 23C61.5906 23.8 61.164 24.2 60.3106 24.2H58.9506C58.444 24.2 58.1106 24.32 57.9506 24.56C57.8173 24.7733 57.7506 25.0667 57.7506 25.44V29.4C57.7506 29.7733 57.6173 30.0933 57.3506 30.36C57.1106 30.6267 56.804 30.76 56.4306 30.76C56.0573 30.76 55.7373 30.6267 55.4706 30.36C55.204 30.0933 55.0706 29.7733 55.0706 29.4V18.12ZM66.1922 40.08C66.1922 38.6667 66.6989 37.5067 67.7122 36.6C68.7255 35.6933 69.9655 35.24 71.4322 35.24C72.8722 35.24 74.0989 35.6933 75.1122 36.6C76.1255 37.5067 76.6322 38.6667 76.6322 40.08C76.6322 41.52 76.1255 42.68 75.1122 43.56C74.0989 44.4667 72.8722 44.92 71.4322 44.92C69.9655 44.92 68.7255 44.4667 67.7122 43.56C66.6989 42.68 66.1922 41.52 66.1922 40.08ZM75.7122 25.12C75.3122 24.6933 74.9255 24.4933 74.5522 24.52C74.2055 24.5467 73.8322 24.76 73.4322 25.16C72.7389 25.8533 72.1122 26.2 71.5522 26.2C70.9922 26.2 70.3389 25.8533 69.5922 25.16C69.1922 24.7867 68.8189 24.5867 68.4722 24.56C68.1522 24.5333 67.7789 24.72 67.3522 25.12L65.3122 27.2C65.0455 27.44 64.7255 27.5467 64.3522 27.52C63.9789 27.4933 63.6589 27.36 63.3922 27.12C63.1522 26.88 63.0189 26.5733 62.9922 26.2C62.9922 25.8 63.1389 25.4667 63.4322 25.2C64.2855 24.4533 64.9522 23.7867 65.4322 23.2C65.9389 22.5867 66.2989 21.9467 66.5122 21.28C66.7522 20.5867 66.8722 19.76 66.8722 18.8C66.9255 17.9467 67.3522 17.52 68.1522 17.52C68.5255 17.52 68.8455 17.64 69.1122 17.88C69.4055 18.0933 69.5389 18.4 69.5122 18.8C69.4855 19.92 69.5522 20.8133 69.7122 21.48C69.8989 22.1467 70.2722 22.72 70.8322 23.2C71.2322 23.4933 71.6455 23.4933 72.0722 23.2C72.6055 22.7467 72.9655 22.2 73.1522 21.56C73.3655 20.92 73.4455 19.9867 73.3922 18.76C73.3655 18.3333 73.4855 18.0133 73.7522 17.8C74.0189 17.56 74.3389 17.44 74.7122 17.44C75.0855 17.44 75.4055 17.56 75.6722 17.8C75.9655 18.0133 76.0989 18.3333 76.0722 18.76C76.0455 19.8533 76.1655 20.7733 76.4322 21.52C76.6989 22.24 77.0989 22.88 77.6322 23.44C78.1655 23.9733 78.7655 24.5467 79.4322 25.16C79.6722 25.3733 79.7789 25.6667 79.7522 26.04C79.7522 26.3867 79.6322 26.7067 79.3922 27C79.1255 27.2667 78.7922 27.4 78.3922 27.4C78.0189 27.3733 77.7255 27.2267 77.5122 26.96L75.7122 25.12ZM72.7922 29.36C72.7922 29.7333 72.8455 30.0667 72.9522 30.36C73.0589 30.6267 73.3922 30.76 73.9522 30.76H76.9922C77.4455 30.76 77.7789 30.8933 77.9922 31.16C78.2055 31.4267 78.3122 31.7067 78.3122 32C78.3122 32.3467 78.1922 32.6533 77.9522 32.92C77.7122 33.16 77.3922 33.28 76.9922 33.28H65.7922C65.3922 33.28 65.0722 33.16 64.8322 32.92C64.6189 32.6533 64.5122 32.3467 64.5122 32C64.5122 31.7067 64.6189 31.4267 64.8322 31.16C65.0455 30.8933 65.3655 30.76 65.7922 30.76H68.9122C69.4722 30.76 69.8055 30.6267 69.9122 30.36C70.0189 30.0667 70.0722 29.7333 70.0722 29.36V28.32C70.0722 27.92 70.1922 27.6 70.4322 27.36C70.6722 27.12 70.9922 27 71.3922 27C71.8455 27 72.1922 27.1333 72.4322 27.4C72.6722 27.64 72.7922 27.9467 72.7922 28.32V29.36ZM68.8322 40.08C68.8322 40.8267 69.0855 41.4133 69.5922 41.84C70.0989 42.2933 70.7122 42.52 71.4322 42.52C72.1255 42.52 72.7122 42.2933 73.1922 41.84C73.6722 41.4133 73.9122 40.8267 73.9122 40.08C73.9122 39.36 73.6722 38.7733 73.1922 38.32C72.7122 37.8667 72.1255 37.64 71.4322 37.64C70.7122 37.64 70.0989 37.8667 69.5922 38.32C69.0855 38.7733 68.8322 39.36 68.8322 40.08ZM92.6213 26.84C92.6213 27.24 92.4879 27.5733 92.2213 27.84C91.9546 28.08 91.6213 28.2 91.2213 28.2C90.8479 28.2 90.5413 28.08 90.3013 27.84C90.0613 27.5733 89.9413 27.24 89.9413 26.84V24.92C89.9413 24.52 89.8479 24.2533 89.6613 24.12C89.4746 23.96 89.1946 23.88 88.8213 23.88H83.9013C83.5013 23.88 83.1813 23.76 82.9413 23.52C82.7013 23.28 82.5813 22.9867 82.5813 22.64C82.5813 22.2933 82.7013 22.0133 82.9413 21.8C83.1813 21.56 83.5013 21.44 83.9013 21.44H88.7013C89.5279 21.44 89.9413 21.0533 89.9413 20.28V20C89.9413 19.5467 89.8346 19.2133 89.6213 19C89.4346 18.7867 88.9946 18.68 88.3013 18.68H83.7413C83.3413 18.68 83.0079 18.5733 82.7413 18.36C82.5013 18.1467 82.3813 17.8533 82.3813 17.48C82.3813 17.1067 82.5013 16.8133 82.7413 16.6C83.0079 16.36 83.3413 16.24 83.7413 16.24H90.3813C90.9946 16.24 91.5146 16.4267 91.9413 16.8C92.3946 17.1733 92.6213 17.7067 92.6213 18.4V26.84ZM95.4613 18.12C95.4613 17.72 95.5813 17.4 95.8213 17.16C96.0879 16.92 96.4213 16.8 96.8213 16.8C97.3013 16.8 97.6346 16.9333 97.8213 17.2C98.0346 17.44 98.1413 17.7467 98.1413 18.12V20.44C98.1413 20.7867 98.1946 21.0933 98.3013 21.36C98.4346 21.6267 98.7813 21.76 99.3413 21.76H100.701C101.155 21.76 101.475 21.8933 101.661 22.16C101.875 22.4267 101.981 22.7067 101.981 23C101.981 23.8 101.555 24.2 100.701 24.2H99.3413C98.8346 24.2 98.5013 24.32 98.3413 24.56C98.2079 24.7733 98.1413 25.0667 98.1413 25.44V29.4C98.1413 29.7733 98.0079 30.0933 97.7413 30.36C97.5013 30.6267 97.1946 30.76 96.8213 30.76C96.4479 30.76 96.1279 30.6267 95.8613 30.36C95.5946 30.0933 95.4613 29.7733 95.4613 29.4V18.12ZM97.5813 39.88C97.5813 40.2533 97.4479 40.56 97.1813 40.8C96.9413 41.04 96.6213 41.16 96.2213 41.16C95.8479 41.16 95.5279 41.04 95.2613 40.8C95.0213 40.56 94.9013 40.2533 94.9013 39.88V36.36C94.9013 35.9067 94.7679 35.4667 94.5013 35.04C94.2613 34.6133 93.7946 34.4 93.1013 34.4H88.6613C88.2879 34.4 87.9679 34.28 87.7013 34.04C87.4613 33.8267 87.3413 33.5333 87.3413 33.16C87.3413 32.7867 87.4613 32.4933 87.7013 32.28C87.9679 32.04 88.2879 31.92 88.6613 31.92H95.3813C95.9946 31.92 96.5146 32.1067 96.9413 32.48C97.3679 32.8533 97.5813 33.3867 97.5813 34.08V39.88ZM106.583 40.08C106.583 38.6667 107.089 37.5067 108.103 36.6C109.116 35.6933 110.356 35.24 111.823 35.24C113.263 35.24 114.489 35.6933 115.503 36.6C116.516 37.5067 117.023 38.6667 117.023 40.08C117.023 41.52 116.516 42.68 115.503 43.56C114.489 44.4667 113.263 44.92 111.823 44.92C110.356 44.92 109.116 44.4667 108.103 43.56C107.089 42.68 106.583 41.52 106.583 40.08ZM116.103 25.12C115.703 24.6933 115.316 24.4933 114.943 24.52C114.596 24.5467 114.223 24.76 113.823 25.16C113.129 25.8533 112.503 26.2 111.943 26.2C111.383 26.2 110.729 25.8533 109.983 25.16C109.583 24.7867 109.209 24.5867 108.863 24.56C108.543 24.5333 108.169 24.72 107.743 25.12L105.703 27.2C105.436 27.44 105.116 27.5467 104.743 27.52C104.369 27.4933 104.049 27.36 103.783 27.12C103.543 26.88 103.409 26.5733 103.383 26.2C103.383 25.8 103.529 25.4667 103.823 25.2C104.676 24.4533 105.343 23.7867 105.823 23.2C106.329 22.5867 106.689 21.9467 106.903 21.28C107.143 20.5867 107.263 19.76 107.263 18.8C107.316 17.9467 107.743 17.52 108.543 17.52C108.916 17.52 109.236 17.64 109.503 17.88C109.796 18.0933 109.929 18.4 109.903 18.8C109.876 19.92 109.943 20.8133 110.103 21.48C110.289 22.1467 110.663 22.72 111.223 23.2C111.623 23.4933 112.036 23.4933 112.463 23.2C112.996 22.7467 113.356 22.2 113.543 21.56C113.756 20.92 113.836 19.9867 113.783 18.76C113.756 18.3333 113.876 18.0133 114.143 17.8C114.409 17.56 114.729 17.44 115.103 17.44C115.476 17.44 115.796 17.56 116.063 17.8C116.356 18.0133 116.489 18.3333 116.463 18.76C116.436 19.8533 116.556 20.7733 116.823 21.52C117.089 22.24 117.489 22.88 118.023 23.44C118.556 23.9733 119.156 24.5467 119.823 25.16C120.063 25.3733 120.169 25.6667 120.143 26.04C120.143 26.3867 120.023 26.7067 119.783 27C119.516 27.2667 119.183 27.4 118.783 27.4C118.409 27.3733 118.116 27.2267 117.903 26.96L116.103 25.12ZM113.183 29.36C113.183 29.7333 113.236 30.0667 113.343 30.36C113.449 30.6267 113.783 30.76 114.343 30.76H117.383C117.836 30.76 118.169 30.8933 118.383 31.16C118.596 31.4267 118.703 31.7067 118.703 32C118.703 32.3467 118.583 32.6533 118.343 32.92C118.103 33.16 117.783 33.28 117.383 33.28H106.183C105.783 33.28 105.463 33.16 105.223 32.92C105.009 32.6533 104.903 32.3467 104.903 32C104.903 31.7067 105.009 31.4267 105.223 31.16C105.436 30.8933 105.756 30.76 106.183 30.76H109.303C109.863 30.76 110.196 30.6267 110.303 30.36C110.409 30.0667 110.463 29.7333 110.463 29.36V28.32C110.463 27.92 110.583 27.6 110.823 27.36C111.063 27.12 111.383 27 111.783 27C112.236 27 112.583 27.1333 112.823 27.4C113.063 27.64 113.183 27.9467 113.183 28.32V29.36ZM109.223 40.08C109.223 40.8267 109.476 41.4133 109.983 41.84C110.489 42.2933 111.103 42.52 111.823 42.52C112.516 42.52 113.103 42.2933 113.583 41.84C114.063 41.4133 114.303 40.8267 114.303 40.08C114.303 39.36 114.063 38.7733 113.583 38.32C113.103 37.8667 112.516 37.64 111.823 37.64C111.103 37.64 110.489 37.8667 109.983 38.32C109.476 38.7733 109.223 39.36 109.223 40.08Z" fill="#FC619C"/>
<path d="M147 31.375C148.84 31.375 150.333 29.6953 150.333 27.625C150.333 25.5547 148.84 23.875 147 23.875C145.768 23.875 144.688 24.6289 144.112 25.75H142.285C142.973 23.5664 144.823 22 147 22C149.761 22 152 24.5195 152 27.625C152 30.7305 149.761 33.25 147 33.25C146.039 33.25 145.143 32.9453 144.379 32.418L145.608 31.0352C146.032 31.2539 146.504 31.375 147 31.375ZM132.064 27.5781C132.192 27.2266 132.498 27 132.834 27H145.611C145.948 27 146.254 27.2266 146.382 27.5781C146.511 27.9297 146.441 28.332 146.202 28.6016L140.056 35.5156V40.125H142.278C142.74 40.125 143.112 40.543 143.112 41.0625C143.112 41.582 142.74 42 142.278 42H139.223H136.167C135.706 42 135.334 41.582 135.334 41.0625C135.334 40.543 135.706 40.125 136.167 40.125H138.39V35.5117L132.244 28.6016C132.005 28.332 131.935 27.9297 132.064 27.5781Z" fill="#FC619C"/>
</svg>
