<svg width="18" height="15" viewBox="0 0 18 15" fill="none" xmlns="http://www.w3.org/2000/svg">
<path d="M8.99995 1.6875C6.96245 1.6875 5.28745 2.6125 4.00308 3.80312C2.79995 4.92188 1.9687 6.25 1.5437 7.1875C1.9687 8.125 2.79995 9.45312 3.99995 10.5719C5.28745 11.7625 6.96245 12.6875 8.99995 12.6875C11.0375 12.6875 12.7125 11.7625 13.9968 10.5719C15.2 9.45312 16.0312 8.125 16.4562 7.1875C16.0312 6.25 15.2 4.92188 14 3.80312C12.7125 2.6125 11.0375 1.6875 8.99995 1.6875ZM2.9812 2.70625C4.45308 1.3375 6.47495 0.1875 8.99995 0.1875C11.525 0.1875 13.5468 1.3375 15.0187 2.70625C16.4812 4.06562 17.4593 5.6875 17.9249 6.80312C18.0281 7.05 18.0281 7.325 17.9249 7.57187C17.4593 8.6875 16.4812 10.3125 15.0187 11.6687C13.5468 13.0375 11.525 14.1875 8.99995 14.1875C6.47495 14.1875 4.45308 13.0375 2.9812 11.6687C1.5187 10.3125 0.540576 8.6875 0.0780762 7.57187C-0.0250488 7.325 -0.0250488 7.05 0.0780762 6.80312C0.540576 5.6875 1.5187 4.0625 2.9812 2.70625ZM8.99995 9.6875C10.3812 9.6875 11.5 8.56875 11.5 7.1875C11.5 5.80625 10.3812 4.6875 8.99995 4.6875C8.97808 4.6875 8.95933 4.6875 8.93745 4.6875C8.97808 4.84688 8.99995 5.01562 8.99995 5.1875C8.99995 6.29063 8.10308 7.1875 6.99995 7.1875C6.82808 7.1875 6.65933 7.16563 6.49995 7.125C6.49995 7.14687 6.49995 7.16563 6.49995 7.1875C6.49995 8.56875 7.6187 9.6875 8.99995 9.6875ZM8.99995 3.1875C10.0608 3.1875 11.0782 3.60893 11.8284 4.35907C12.5785 5.10922 13 6.12663 13 7.1875C13 8.24837 12.5785 9.26578 11.8284 10.0159C11.0782 10.7661 10.0608 11.1875 8.99995 11.1875C7.93909 11.1875 6.92167 10.7661 6.17152 10.0159C5.42138 9.26578 4.99995 8.24837 4.99995 7.1875C4.99995 6.12663 5.42138 5.10922 6.17152 4.35907C6.92167 3.60893 7.93909 3.1875 8.99995 3.1875Z" fill="#FFB0CE"/>
</svg>
