<svg width="16" height="19" viewBox="0 0 16 19" fill="none" xmlns="http://www.w3.org/2000/svg">
<path d="M5.0625 5.25V6.9375H10.6875V5.25C10.6875 3.69609 9.42891 2.4375 7.875 2.4375C6.32109 2.4375 5.0625 3.69609 5.0625 5.25ZM2.8125 6.9375V5.25C2.8125 2.45508 5.08008 0.1875 7.875 0.1875C10.6699 0.1875 12.9375 2.45508 12.9375 5.25V6.9375H13.5C14.741 6.9375 15.75 7.94648 15.75 9.1875V15.9375C15.75 17.1785 14.741 18.1875 13.5 18.1875H2.25C1.00898 18.1875 0 17.1785 0 15.9375V9.1875C0 7.94648 1.00898 6.9375 2.25 6.9375H2.8125Z" fill="#FFB0CE"/>
</svg>
