<svg width="20" height="20" viewBox="0 0 20 20" fill="none" xmlns="http://www.w3.org/2000/svg">
<path d="M15.3672 0.367187C15.8555 -0.121094 16.6484 -0.121094 17.1367 0.367187L19.6367 2.86719C20.125 3.35547 20.125 4.14844 19.6367 4.63672C19.1758 5.09766 18.4375 5.125 17.9492 4.71094L17.5781 5.08203L15.6719 6.98828C15.3125 7.34766 15.2227 7.88281 15.3359 8.37891C15.7031 9.97656 15.2617 11.7227 14.0156 12.9687L7.70703 19.2695C6.73047 20.2461 5.14844 20.2461 4.17188 19.2695L0.734375 15.832C-0.242188 14.8555 -0.242188 13.2734 0.734375 12.2969L7.03906 5.98828C8.28516 4.74219 10.0313 4.30469 11.6289 4.66797C12.1211 4.78125 12.6602 4.6875 13.0156 4.33203L14.9219 2.42578L15.293 2.05469C14.8789 1.5625 14.9023 0.828125 15.3672 0.367187ZM3.87891 13.5664L6.43359 16.1211C6.67578 16.3633 7.07422 16.3633 7.31641 16.1211L11.1211 12.3164C11.3633 12.0742 11.3633 11.6758 11.1211 11.4336L8.56641 8.87891C8.32422 8.63672 7.92578 8.63672 7.68359 8.87891L3.87891 12.6836C3.63672 12.9258 3.63672 13.3242 3.87891 13.5664Z" fill="#38BDF8"/>
</svg>
