<svg width="18" height="18" viewBox="0 0 18 18" fill="none" xmlns="http://www.w3.org/2000/svg">
<path d="M17.6406 2.75C17.6406 1.37109 16.5195 0.25 15.1406 0.25C14.8828 0.25 14.6328 0.289063 14.3984 0.363281C13.5195 0.636719 12.5195 0.945313 11.625 0.714844C8.6875 -0.0312499 5.51562 1.14453 3.27734 3.38281C1.03906 5.62109 -0.140625 8.79688 0.605469 11.7344C0.832031 12.6289 0.527344 13.625 0.253906 14.5078C0.179688 14.7422 0.140625 14.9922 0.140625 15.25C0.140625 16.6289 1.26172 17.75 2.64062 17.75C2.89844 17.75 3.14844 17.7109 3.38672 17.6367C4.26562 17.3633 5.26563 17.0547 6.16016 17.2852C9.09766 18.0312 12.2695 16.8555 14.5078 14.6172C16.7461 12.3789 17.9258 9.20703 17.1758 6.26953C16.9492 5.375 17.2539 4.37891 17.5273 3.49609C17.6016 3.26172 17.6406 3.01172 17.6406 2.75ZM8.44141 3.97656C6.30859 4.60156 4.49219 6.41797 3.86719 8.55078C3.76953 8.88281 3.42188 9.07031 3.08984 8.97656C2.75781 8.88281 2.57031 8.53125 2.66406 8.19922C3.41016 5.65625 5.54297 3.51953 8.08984 2.77344C8.42188 2.67578 8.76953 2.86719 8.86719 3.19922C8.96484 3.53125 8.77344 3.87891 8.44141 3.97656Z" fill="#FACC15"/>
</svg>
