<svg width="24" height="20" viewBox="0 0 24 20" fill="none" xmlns="http://www.w3.org/2000/svg">
<path d="M17.8594 9.375C19.9297 9.375 21.6094 7.69531 21.6094 5.625C21.6094 3.55469 19.9297 1.875 17.8594 1.875C16.4727 1.875 15.2579 2.62891 14.6094 3.75H12.5547C13.3282 1.56641 15.4102 0 17.8594 0C20.9649 0 23.4844 2.51953 23.4844 5.625C23.4844 8.73047 20.9649 11.25 17.8594 11.25C16.7774 11.25 15.7696 10.9453 14.9102 10.418L16.293 9.03516C16.7696 9.25391 17.3008 9.375 17.8594 9.375ZM1.05475 5.57812C1.19928 5.22656 1.54303 5 1.92193 5H16.2969C16.6758 5 17.0196 5.22656 17.1641 5.57812C17.3087 5.92969 17.2305 6.33203 16.961 6.60156L10.0469 13.5156V18.125H12.5469C13.0665 18.125 13.4844 18.543 13.4844 19.0625C13.4844 19.582 13.0665 20 12.5469 20H9.10943H5.67193C5.1524 20 4.73443 19.582 4.73443 19.0625C4.73443 18.543 5.1524 18.125 5.67193 18.125H8.17193V13.5117L1.25787 6.60156C0.988341 6.33203 0.910216 5.92969 1.05475 5.57812Z" fill="#38BDF8"/>
</svg>
