<svg width="19" height="20" viewBox="0 0 19 20" fill="none" xmlns="http://www.w3.org/2000/svg">
<path d="M6.86328 0.210948C7.16797 -0.0742087 7.64062 -0.0703025 7.94531 0.214854C9.02344 1.22657 10.0352 2.31642 10.9805 3.4961C11.4102 2.9336 11.8984 2.32032 12.4258 1.82032C12.7344 1.53126 13.2109 1.53126 13.5195 1.82423C14.8711 3.11329 16.0156 4.81642 16.8203 6.4336C17.6133 8.02735 18.1406 9.65626 18.1406 10.8047C18.1406 15.7891 14.2422 20 9.39062 20C4.48438 20 0.640625 15.7852 0.640625 10.8008C0.640625 9.30079 1.33594 7.46876 2.41406 5.65626C3.50391 3.81642 5.04297 1.89845 6.86328 0.210948ZM9.45703 16.25C10.4453 16.25 11.3203 15.9766 12.1445 15.4297C13.7891 14.2813 14.2305 11.9844 13.2422 10.1797C13.0664 9.82814 12.6172 9.8047 12.3633 10.1016L11.3789 11.2461C11.1211 11.543 10.6562 11.5352 10.4141 11.2266C9.76953 10.4063 8.61719 8.94142 7.96094 8.10939C7.71484 7.79689 7.24609 7.79298 6.99609 8.10548C5.67578 9.76563 5.01172 10.8125 5.01172 11.9883C5.01562 14.6641 6.99219 16.25 9.45703 16.25Z" fill="#F472B6"/>
</svg>
