<svg width="51" height="51" viewBox="0 0 50=1 51" fill="none" xmlns="http://www.w3.org/2000/svg">
<circle cx="25" cy="25" r="25" fill="#FFB7B7"/>
<path fill-rule="evenodd" clip-rule="evenodd" d="M20.0917 12.9038C18.8164 14.1228 18.1 15.7761 18.1 17.5C18.1 19.2239 18.8164 20.8772 20.0917 22.0962C21.3669 23.3152 23.0965 24 24.9 24C26.7035 24 28.4331 23.3152 29.7083 22.0962C30.9836 20.8772 31.7 19.2239 31.7 17.5C31.7 15.7761 30.9836 14.1228 29.7083 12.9038C28.4331 11.6848 26.7035 11 24.9 11C23.0965 11 21.3669 11.6848 20.0917 12.9038ZM22.4722 26.4375C17.2394 26.4375 13 30.4898 13 35.4918C13 36.3246 13.7066 37 14.5778 37H35.2222C36.0934 37 36.8 36.3246 36.8 35.4918C36.8 30.4898 32.5606 26.4375 27.3278 26.4375H22.4722Z" fill="white"/>
<path d="M39.775 26.8437V23.5937H36.375C35.6684 23.5937 35.1 23.0504 35.1 22.375C35.1 21.6996 35.6684 21.1562 36.375 21.1562H39.775V17.9062C39.775 17.2309 40.3434 16.6875 41.05 16.6875C41.7566 16.6875 42.325 17.2309 42.325 17.9062V21.1562H45.725C46.4316 21.1562 47 21.6996 47 22.375C47 23.0504 46.4316 23.5937 45.725 23.5937C45.725 23.5937 44.875 26.0312 42.325 23.5937C39.775 21.1562 42.325 26.8437 42.325 26.8437C42.325 27.5191 41.7566 28.0625 41.05 28.0625C40.3434 28.0625 39.775 27.5191 39.775 26.8437Z" fill="white"/>
<ellipse cx="40.5" cy="22.5" rx="6.5" ry="7.5" fill="#FFB7B7"/>
</svg>
